<svg width="19" height="19" viewBox="0 0 19 19" fill="none" xmlns="http://www.w3.org/2000/svg">
<path d="M16.2191 13.5692L13.001 10.6432C12.8489 10.5049 12.649 10.4312 12.4435 10.4375C12.238 10.4439 12.0431 10.5298 11.8998 10.6772L10.0053 12.6255C9.54931 12.5384 8.63256 12.2526 7.68889 11.3113C6.74522 10.3669 6.45943 9.44775 6.37472 8.99491L8.32143 7.09966C8.46901 6.95647 8.55508 6.76148 8.56143 6.55595C8.56779 6.35042 8.49392 6.15049 8.35547 5.99845L5.43026 2.78112C5.29176 2.62861 5.09925 2.5361 4.89364 2.52324C4.68802 2.51038 4.48549 2.57818 4.32906 2.71225L2.61114 4.18554C2.47427 4.3229 2.39258 4.50573 2.38156 4.69933C2.36968 4.89725 2.14326 9.5855 5.7786 13.2224C8.95001 16.393 12.9226 16.625 14.0167 16.625C14.1766 16.625 14.2748 16.6202 14.3009 16.6187C14.4945 16.6078 14.6772 16.5258 14.8139 16.3883L16.2864 14.6696C16.421 14.5136 16.4893 14.3113 16.4767 14.1057C16.4641 13.9001 16.3717 13.7075 16.2191 13.5692Z" fill="#DCD7C0"/>
<path d="M16.2191 13.5692L13.001 10.6432C12.8489 10.5049 12.649 10.4312 12.4435 10.4375C12.238 10.4439 12.0431 10.5298 11.8998 10.6772L10.0053 12.6255C9.54931 12.5384 8.63256 12.2526 7.68889 11.3113C6.74522 10.3669 6.45943 9.44775 6.37472 8.99491L8.32143 7.09966C8.46901 6.95647 8.55508 6.76148 8.56143 6.55595C8.56779 6.35042 8.49392 6.15049 8.35547 5.99845L5.43026 2.78112C5.29176 2.62861 5.09925 2.5361 4.89364 2.52324C4.68802 2.51038 4.48549 2.57818 4.32906 2.71225L2.61114 4.18554C2.47427 4.3229 2.39258 4.50573 2.38156 4.69933C2.36968 4.89725 2.14326 9.5855 5.7786 13.2224C8.95001 16.393 12.9226 16.625 14.0167 16.625C14.1766 16.625 14.2748 16.6202 14.3009 16.6187C14.4945 16.6078 14.6772 16.5258 14.8139 16.3883L16.2864 14.6696C16.421 14.5136 16.4893 14.3113 16.4767 14.1057C16.4641 13.9001 16.3717 13.7075 16.2191 13.5692Z" fill="url(#paint0_linear_222_16)"/>
<defs>
<linearGradient id="paint0_linear_222_16" x1="6.96305" y1="2.52169" x2="11.869" y2="4.02073" gradientUnits="userSpaceOnUse">
<stop stop-color="#E0DEDE"/>
<stop offset="0.983598" stop-color="#A2A0A0"/>
</linearGradient>
</defs>
</svg>
